<mxfile host="Electron" modified="2024-01-22T21:32:03.489Z" agent="Mozilla/5.0 (Windows NT 10.0; Win64; x64) AppleWebKit/537.36 (KHTML, like Gecko) draw.io/21.6.1 Chrome/112.0.5615.204 Electron/24.6.1 Safari/537.36" etag="3W7Z8Ax59xr2RfuaAYrJ" version="21.6.1" type="device">
  <diagram name="Page-1" id="pHXw0ptAcdJAV9BvCxZM">
    <mxGraphModel dx="1355" dy="1018" grid="1" gridSize="10" guides="1" tooltips="1" connect="1" arrows="1" fold="1" page="1" pageScale="1" pageWidth="1169" pageHeight="827" math="0" shadow="0">
      <root>
        <mxCell id="0" />
        <mxCell id="1" parent="0" />
        <mxCell id="SnN0FBco_PcDRCw788La-1" value="" style="rounded=1;whiteSpace=wrap;html=1;" vertex="1" parent="1">
          <mxGeometry x="190" y="20" width="840" height="530" as="geometry" />
        </mxCell>
        <mxCell id="SnN0FBco_PcDRCw788La-2" value="" style="rounded=1;whiteSpace=wrap;html=1;" vertex="1" parent="1">
          <mxGeometry x="330" y="570" width="560" height="230" as="geometry" />
        </mxCell>
        <mxCell id="SnN0FBco_PcDRCw788La-3" value="" style="rounded=1;whiteSpace=wrap;html=1;" vertex="1" parent="1">
          <mxGeometry x="40" y="570" width="210" height="120" as="geometry" />
        </mxCell>
      </root>
    </mxGraphModel>
  </diagram>
</mxfile>
